<svg width="25" height="23" viewBox="0 0 25 23" fill="none" xmlns="http://www.w3.org/2000/svg">
<path d="M15 7V5H7V7M6 19C4.9 19 4 19.9 4 21C4 22.1 4.9 23 6 23C7.1 23 8 22.1 8 21C8 19.9 7.1 19 6 19ZM16 19C14.9 19 14 19.9 14 21C14 22.1 14.9 23 16 23C17.1 23 18 22.1 18 21C18 19.9 17.1 19 16 19ZM6.2 15.8V15.7L7.1 14H14.5C15.2 14 15.9 13.6 16.2 13L20.1 6L18.4 5L14.5 12H7.5L3.3 3H0V5H2L5.6 12.6L4.2 15C4.1 15.3 4 15.6 4 16C4 17.1 4.9 18 6 18H18V16H6.4C6.3 16 6.2 15.9 6.2 15.8Z" fill="#7B0100"/>
<circle cx="21" cy="4" r="4" fill="#7B0100"/>
<path d="M21.076 6.096C19.966 6.096 19.174 5.292 19.174 3.9C19.174 2.508 19.966 1.704 21.076 1.704C22.186 1.704 22.978 2.508 22.978 3.9C22.978 5.292 22.186 6.096 21.076 6.096ZM21.076 4.962C21.352 4.962 21.556 4.71 21.556 3.9C21.556 3.09 21.352 2.838 21.076 2.838C20.8 2.838 20.596 3.09 20.596 3.9C20.596 4.71 20.8 4.962 21.076 4.962Z" fill="#F6EAD4"/>
</svg>
