<svg width="22" height="22" viewBox="0 0 22 22" fill="none" xmlns="http://www.w3.org/2000/svg">
<path d="M15 4L20.25 8.5L15 13L20.25 17.5L15 22V19H12.26L9.44 16.18L11.56 14.06L13.5 16H15V13V10H13.5L4.5 19H0V16H3.26L12.26 7H15V4ZM0 7H4.5L7.32 9.82L5.2 11.94L3.26 10H0V7Z" fill="#7B0100"/>
<circle cx="18" cy="4" r="4" fill="#7B0100"/>
<path d="M18.076 6.096C16.966 6.096 16.174 5.292 16.174 3.9C16.174 2.508 16.966 1.704 18.076 1.704C19.186 1.704 19.978 2.508 19.978 3.9C19.978 5.292 19.186 6.096 18.076 6.096ZM18.076 4.962C18.352 4.962 18.556 4.71 18.556 3.9C18.556 3.09 18.352 2.838 18.076 2.838C17.8 2.838 17.596 3.09 17.596 3.9C17.596 4.71 17.8 4.962 18.076 4.962Z" fill="#F6EAD4"/>
</svg>
