<svg width="24" height="23" viewBox="0 0 24 23" fill="none" xmlns="http://www.w3.org/2000/svg">
<path d="M10.1 19.55L10 19.65L9.89 19.55C5.14 15.24 2 12.39 2 9.5C2 7.5 3.5 6 5.5 6C7.04 6 8.54 7 9.07 8.36H10.93C11.46 7 12.96 6 14.5 6C16.5 6 18 7.5 18 9.5C18 12.39 14.86 15.24 10.1 19.55ZM14.5 4C12.76 4 11.09 4.81 10 6.08C8.91 4.81 7.24 4 5.5 4C2.42 4 0 6.41 0 9.5C0 13.27 3.4 16.36 8.55 21.03L10 22.35L11.45 21.03C16.6 16.36 20 13.27 20 9.5C20 6.41 17.58 4 14.5 4Z" fill="#7B0100"/>
<circle cx="20" cy="4" r="4" fill="#7B0100"/>
<path d="M20.076 6.096C18.966 6.096 18.174 5.292 18.174 3.9C18.174 2.508 18.966 1.704 20.076 1.704C21.186 1.704 21.978 2.508 21.978 3.9C21.978 5.292 21.186 6.096 20.076 6.096ZM20.076 4.962C20.352 4.962 20.556 4.71 20.556 3.9C20.556 3.09 20.352 2.838 20.076 2.838C19.8 2.838 19.596 3.09 19.596 3.9C19.596 4.71 19.8 4.962 20.076 4.962Z" fill="#F6EAD4"/>
</svg>
