<svg width="45" height="43" viewBox="0 0 45 43" fill="none" xmlns="http://www.w3.org/2000/svg">
<path d="M44.6763 26.66L42.518 28.81L37.9856 24.295L40.1439 22.145C40.5755 21.715 41.4389 21.715 41.8705 22.145L44.6763 24.94C45.1079 25.37 45.1079 26.015 44.6763 26.66ZM23.741 38.485L36.9065 25.37L41.4389 29.885L28.2734 43H23.741V38.485ZM19.4245 38.485V36.765L20.7194 35.475L21.7986 34.4H12.9496V30.1H8.63309V12.9H12.9496V8.6H30.2158V12.9H34.5324V21.715L36.9065 19.35L37.3381 18.92C37.7698 18.49 38.4173 18.06 39.0648 17.845V12.9H43.3813V0H30.4317V4.3H12.9496V0H0V12.9H4.31655V30.1H0V43H12.9496V38.7L19.4245 38.485ZM34.5324 4.3H38.8489V8.6H34.5324V4.3ZM4.31655 4.3H8.63309V8.6H4.31655V4.3ZM8.63309 38.7H4.31655V34.4H8.63309V38.7Z" fill="#7B0100"/>
</svg>
