<svg width="133" height="150" viewBox="0 0 133 150" fill="none" xmlns="http://www.w3.org/2000/svg">
<path d="M21.6139 121.24C17.2739 121.24 14.0339 118.22 14.0339 114C14.0339 109.78 17.2739 106.76 21.6339 106.76C24.0539 106.76 26.0739 107.64 27.3939 109.24L25.3139 111.16C24.3739 110.08 23.1939 109.52 21.7939 109.52C19.1739 109.52 17.3139 111.36 17.3139 114C17.3139 116.64 19.1739 118.48 21.7939 118.48C23.1939 118.48 24.3739 117.92 25.3139 116.82L27.3939 118.74C26.0739 120.36 24.0539 121.24 21.6139 121.24ZM33.6238 110.08C36.9038 110.08 38.8038 111.6 38.8038 114.86V121H35.8838V119.66C35.3038 120.64 34.1838 121.16 32.6038 121.16C30.0838 121.16 28.5838 119.76 28.5838 117.9C28.5838 116 29.9238 114.68 33.2038 114.68H35.6838C35.6838 113.34 34.8838 112.56 33.2038 112.56C32.0638 112.56 30.8838 112.94 30.1038 113.56L28.9838 111.38C30.1638 110.54 31.9038 110.08 33.6238 110.08ZM33.3838 119.06C34.4238 119.06 35.3238 118.58 35.6838 117.6V116.5H33.5438C32.0838 116.5 31.6238 117.04 31.6238 117.76C31.6238 118.54 32.2838 119.06 33.3838 119.06ZM41.6275 121V106.16H44.7475V121H41.6275ZM52.8431 121.16C49.3431 121.16 46.8431 118.86 46.8431 115.62C46.8431 112.38 49.3431 110.08 52.8431 110.08C55.1031 110.08 56.8831 111.06 57.6631 112.82L55.2431 114.12C54.6631 113.1 53.8031 112.64 52.8231 112.64C51.2431 112.64 50.0031 113.74 50.0031 115.62C50.0031 117.5 51.2431 118.6 52.8231 118.6C53.8031 118.6 54.6631 118.16 55.2431 117.12L57.6631 118.44C56.8831 120.16 55.1031 121.16 52.8431 121.16ZM67.1795 110.24H70.2995V121H67.3395V119.72C66.5195 120.66 65.3195 121.16 63.9995 121.16C61.2995 121.16 59.3995 119.64 59.3995 116.32V110.24H62.5195V115.86C62.5195 117.66 63.3195 118.46 64.6995 118.46C66.1395 118.46 67.1795 117.54 67.1795 115.56V110.24ZM73.19 121V106.16H76.31V121H73.19ZM89.7456 115.66C89.7456 115.9 89.7056 116.24 89.6856 116.5H81.5456C81.8456 117.84 82.9856 118.66 84.6256 118.66C85.7656 118.66 86.5856 118.32 87.3256 117.62L88.9856 119.42C87.9856 120.56 86.4856 121.16 84.5456 121.16C80.8256 121.16 78.4056 118.82 78.4056 115.62C78.4056 112.4 80.8656 110.08 84.1456 110.08C87.3056 110.08 89.7456 112.2 89.7456 115.66ZM84.1656 112.44C82.7456 112.44 81.7256 113.3 81.5056 114.68H86.8056C86.5856 113.32 85.5656 112.44 84.1656 112.44ZM101.107 121.16C99.2869 121.16 97.4469 120.66 96.4469 120L97.4869 117.76C98.4469 118.38 99.9069 118.8 101.227 118.8C102.667 118.8 103.207 118.42 103.207 117.82C103.207 116.06 96.7069 117.86 96.7069 113.56C96.7069 111.52 98.5469 110.08 101.687 110.08C103.167 110.08 104.807 110.42 105.827 111.02L104.787 113.24C103.727 112.64 102.667 112.44 101.687 112.44C100.287 112.44 99.6869 112.88 99.6869 113.44C99.6869 115.28 106.187 113.5 106.187 117.74C106.187 119.74 104.327 121.16 101.107 121.16ZM115.832 110.24H118.952V121H115.992V119.72C115.172 120.66 113.972 121.16 112.652 121.16C109.952 121.16 108.052 119.64 108.052 116.32V110.24H111.172V115.86C111.172 117.66 111.972 118.46 113.352 118.46C114.792 118.46 115.832 117.54 115.832 115.56V110.24ZM126.182 110.08C129.462 110.08 131.362 111.6 131.362 114.86V121H128.442V119.66C127.862 120.64 126.742 121.16 125.162 121.16C122.642 121.16 121.142 119.76 121.142 117.9C121.142 116 122.482 114.68 125.762 114.68H128.242C128.242 113.34 127.442 112.56 125.762 112.56C124.622 112.56 123.442 112.94 122.662 113.56L121.542 111.38C122.722 110.54 124.462 110.08 126.182 110.08ZM125.942 119.06C126.982 119.06 127.882 118.58 128.242 117.6V116.5H126.102C124.642 116.5 124.182 117.04 124.182 117.76C124.182 118.54 124.842 119.06 125.942 119.06ZM36.2101 142.4H43.8301V145H32.9901V131H43.5701V133.6H36.2101V136.64H42.7101V139.16H36.2101V142.4ZM52.728 134.08C55.268 134.08 57.188 135.56 57.188 138.84V145H54.068V139.32C54.068 137.58 53.268 136.78 51.888 136.78C50.388 136.78 49.308 137.7 49.308 139.68V145H46.188V134.24H49.168V135.5C50.008 134.58 51.268 134.08 52.728 134.08ZM66.1162 142.28L66.9562 144.48C66.3162 144.94 65.3762 145.16 64.4162 145.16C61.8762 145.16 60.3962 143.86 60.3962 141.3V136.88H58.7362V134.48H60.3962V131.86H63.5162V134.48H66.1962V136.88H63.5162V141.26C63.5162 142.18 64.0162 142.68 64.8562 142.68C65.3162 142.68 65.7762 142.54 66.1162 142.28ZM71.6876 135.66C72.4476 134.62 73.7276 134.08 75.3876 134.08V136.96C75.1276 136.94 74.9276 136.92 74.6876 136.92C72.9676 136.92 71.8276 137.86 71.8276 139.92V145H68.7076V134.24H71.6876V135.66ZM87.6851 139.66C87.6851 139.9 87.6451 140.24 87.6251 140.5H79.4851C79.7851 141.84 80.9251 142.66 82.5651 142.66C83.7051 142.66 84.5251 142.32 85.2651 141.62L86.9251 143.42C85.9251 144.56 84.4251 145.16 82.4851 145.16C78.7651 145.16 76.3451 142.82 76.3451 139.62C76.3451 136.4 78.8051 134.08 82.0851 134.08C85.2451 134.08 87.6851 136.2 87.6851 139.66ZM82.1051 136.44C80.6851 136.44 79.6651 137.3 79.4451 138.68H84.7451C84.5251 137.32 83.5051 136.44 82.1051 136.44ZM97.9023 134.24H100.862V143.2C100.862 147.2 98.7023 149.04 94.8223 149.04C92.7823 149.04 90.8023 148.54 89.5423 147.56L90.7823 145.32C91.7023 146.06 93.2023 146.54 94.5823 146.54C96.7823 146.54 97.7423 145.54 97.7423 143.6V143.14C96.9223 144.04 95.7423 144.48 94.3423 144.48C91.3623 144.48 88.9623 142.42 88.9623 139.28C88.9623 136.14 91.3623 134.08 94.3423 134.08C95.8423 134.08 97.0823 134.58 97.9023 135.62V134.24ZM94.9623 141.92C96.6023 141.92 97.7823 140.86 97.7823 139.28C97.7823 137.7 96.6023 136.64 94.9623 136.64C93.3223 136.64 92.1223 137.7 92.1223 139.28C92.1223 140.86 93.3223 141.92 94.9623 141.92ZM108.106 134.08C111.386 134.08 113.286 135.6 113.286 138.86V145H110.366V143.66C109.786 144.64 108.666 145.16 107.086 145.16C104.566 145.16 103.066 143.76 103.066 141.9C103.066 140 104.406 138.68 107.686 138.68H110.166C110.166 137.34 109.366 136.56 107.686 136.56C106.546 136.56 105.366 136.94 104.586 137.56L103.466 135.38C104.646 134.54 106.386 134.08 108.106 134.08ZM107.866 143.06C108.906 143.06 109.806 142.58 110.166 141.6V140.5H108.026C106.566 140.5 106.106 141.04 106.106 141.76C106.106 142.54 106.766 143.06 107.866 143.06Z" fill="#626262"/>
<path d="M15.4 53.4375L11.2 45H40.6L37.24 36.5625H9.8L5.6 28.125H49.28L45.92 19.6875H4.816L0 11.25H21C21 8.26631 22.18 5.40483 24.2804 3.29505C26.3808 1.18526 29.2296 0 32.2 0H99.4V22.5H116.2L133 45V73.125H121.8C121.8 77.6005 120.03 81.8928 116.879 85.0574C113.729 88.2221 109.456 90 105 90C100.544 90 96.2712 88.2221 93.1206 85.0574C89.97 81.8928 88.2 77.6005 88.2 73.125H65.8C65.8 77.6005 64.03 81.8928 60.8794 85.0574C57.7288 88.2221 53.4556 90 49 90C44.5444 90 40.2712 88.2221 37.1206 85.0574C33.97 81.8928 32.2 77.6005 32.2 73.125H21V53.4375H15.4ZM105 81.5625C107.228 81.5625 109.364 80.6735 110.94 79.0912C112.515 77.5089 113.4 75.3628 113.4 73.125C113.4 70.8872 112.515 68.7411 110.94 67.1588C109.364 65.5764 107.228 64.6875 105 64.6875C102.772 64.6875 100.636 65.5764 99.0603 67.1588C97.485 68.7411 96.6 70.8872 96.6 73.125C96.6 75.3628 97.485 77.5089 99.0603 79.0912C100.636 80.6735 102.772 81.5625 105 81.5625ZM113.4 30.9375H99.4V45H124.376L113.4 30.9375ZM49 81.5625C51.2278 81.5625 53.3644 80.6735 54.9397 79.0912C56.515 77.5089 57.4 75.3628 57.4 73.125C57.4 70.8872 56.515 68.7411 54.9397 67.1588C53.3644 65.5764 51.2278 64.6875 49 64.6875C46.7722 64.6875 44.6356 65.5764 43.0603 67.1588C41.485 68.7411 40.6 70.8872 40.6 73.125C40.6 75.3628 41.485 77.5089 43.0603 79.0912C44.6356 80.6735 46.7722 81.5625 49 81.5625Z" fill="#626262"/>
</svg>
