<svg width="35" height="36" viewBox="0 0 35 36" fill="none" xmlns="http://www.w3.org/2000/svg">
<path d="M10.15 0H24.85C30.45 0 35 4.68 35 10.44V25.56C35 28.3289 33.9306 30.9843 32.0271 32.9422C30.1236 34.9001 27.5419 36 24.85 36H10.15C4.55 36 0 31.32 0 25.56V10.44C0 7.67114 1.06937 5.01569 2.97287 3.05781C4.87636 1.09993 7.45805 0 10.15 0ZM9.8 3.6C8.12914 3.6 6.52671 4.28271 5.34523 5.49795C4.16375 6.71318 3.5 8.3614 3.5 10.08V25.92C3.5 29.502 6.3175 32.4 9.8 32.4H25.2C26.8709 32.4 28.4733 31.7173 29.6548 30.5021C30.8363 29.2868 31.5 27.6386 31.5 25.92V10.08C31.5 6.498 28.6825 3.6 25.2 3.6H9.8ZM26.6875 6.3C27.2677 6.3 27.8241 6.53705 28.2343 6.95901C28.6445 7.38097 28.875 7.95326 28.875 8.55C28.875 9.14674 28.6445 9.71903 28.2343 10.141C27.8241 10.5629 27.2677 10.8 26.6875 10.8C26.1073 10.8 25.5509 10.5629 25.1407 10.141C24.7305 9.71903 24.5 9.14674 24.5 8.55C24.5 7.95326 24.7305 7.38097 25.1407 6.95901C25.5509 6.53705 26.1073 6.3 26.6875 6.3ZM17.5 9C19.8206 9 22.0462 9.94821 23.6872 11.636C25.3281 13.3239 26.25 15.6131 26.25 18C26.25 20.3869 25.3281 22.6761 23.6872 24.364C22.0462 26.0518 19.8206 27 17.5 27C15.1794 27 12.9538 26.0518 11.3128 24.364C9.67187 22.6761 8.75 20.3869 8.75 18C8.75 15.6131 9.67187 13.3239 11.3128 11.636C12.9538 9.94821 15.1794 9 17.5 9ZM17.5 12.6C16.1076 12.6 14.7723 13.1689 13.7877 14.1816C12.8031 15.1943 12.25 16.5678 12.25 18C12.25 19.4322 12.8031 20.8057 13.7877 21.8184C14.7723 22.8311 16.1076 23.4 17.5 23.4C18.8924 23.4 20.2277 22.8311 21.2123 21.8184C22.1969 20.8057 22.75 19.4322 22.75 18C22.75 16.5678 22.1969 15.1943 21.2123 14.1816C20.2277 13.1689 18.8924 12.6 17.5 12.6Z" fill="#7B0100"/>
</svg>
