<svg width="131" height="130" viewBox="0 0 131 130" fill="none" xmlns="http://www.w3.org/2000/svg">
<path d="M59.3736 89.8735H56.5179V129.534H59.3736V89.8735Z" fill="#7B0100"/>
<path d="M0.0345999 129.645V92.4174C0.0345999 91.5593 0 90.7705 0 89.9839H12.6174V90.7866H2.74492V117.394H12.6197V118.197H2.74492V129.647H0.0345999V129.645Z" fill="#7B0100"/>
<path d="M29.2414 129.645C29.0937 128.853 28.9922 128.014 28.7985 127.156L27.885 122.233H16.4348L15.1338 129.645H14.2758L20.7482 93.3862C21.0412 92.1222 21.1888 91.2779 21.4771 90.1384C21.5002 90.0485 21.5809 89.9839 21.6732 89.9839H23.0157C24.0122 89.9839 24.8126 90.7589 25.0063 91.7531L31.5619 127.156C31.7556 128.208 31.9471 129.121 32.1062 129.645H29.239H29.2414ZM27.719 121.431L22.1046 91.0634C22.1046 91.0357 22.0769 91.008 22.0492 91.008L21.9938 91.0634L16.6009 121.431H27.719Z" fill="#7B0100"/>
<path d="M49.4016 112.552C50.8132 114.238 51.5029 116.48 51.5029 119.274C51.5029 122.621 50.5065 125.193 48.5435 126.962C46.5528 128.759 44.0916 129.645 41.1876 129.645H36.4012C36.4012 128.987 36.4012 128.069 36.4289 127.211V92.4174C36.4289 91.6009 36.4566 90.8627 36.4704 90.1015C36.4704 90.0369 36.5258 89.9839 36.5904 89.9839H40.5486C43.3143 89.9839 45.6648 90.8143 47.6301 92.5005C49.5653 94.1866 50.5341 96.6224 50.5341 99.801C50.5341 104.779 47.8515 108.07 43.9509 109.205C46.1907 109.731 47.9899 110.864 49.3993 112.552H49.4016ZM39.1392 108.901H39.942C42.3478 108.901 44.2277 108.07 45.5841 106.44C46.9127 104.809 47.5747 102.567 47.5747 99.7733C47.5747 94.1866 44.7813 90.7843 39.942 90.7843H39.1392V108.901ZM39.1392 128.842H40.5509C43.0675 128.842 45.0305 127.984 46.4421 126.27C47.8515 124.556 48.5435 122.231 48.5435 119.272C48.5435 116.312 47.8515 113.989 46.4698 112.275C45.0604 110.562 43.0952 109.704 40.5509 109.704H39.1392V128.842Z" fill="#7B0100"/>
<path d="M23.6363 42.7299C21.0183 38.4442 17.8374 36.2851 14.1352 36.2851C10.433 36.2851 7.42513 38.1651 5.27302 41.9272C3.12091 45.7171 2.05523 50.3073 2.05523 55.7556C2.05523 61.204 3.12091 65.7942 5.27302 69.5841C7.42513 73.3739 10.373 75.2538 14.1352 75.2538C17.8974 75.2538 21.272 73.2632 24.1023 69.2519L24.5475 69.8609C21.7356 73.9829 18.2641 76.0289 14.1352 76.0289C10.2185 76.0289 6.88307 74.0659 4.12892 70.11C1.37707 66.1564 0 61.37 0 55.7556C0 50.1412 1.37707 45.3572 4.13122 41.4013C6.88537 37.4454 10.2208 35.4824 14.1375 35.4824C16.4073 35.4824 18.3656 35.9807 19.9941 36.9471C21.6226 37.9436 23.175 39.4084 24.6282 41.3713L23.6386 42.7276L23.6363 42.7299Z" fill="#7B0100"/>
<path d="M40.002 75.5855H29.1331V38.3583C29.1331 37.5003 29.1492 36.8175 29.163 35.9248H31.8434V74.7828H40.002" fill="#7B0100"/>
<path d="M58.9997 75.5855H46.4446V38.3583C46.4446 37.5003 46.4515 36.7506 46.4515 35.9248H59.0297V36.7275H49.1549V53.3216H59.0297V54.1243H49.1549V74.7851H59.0089" fill="#7B0100"/>
<path d="M74.2353 75.5855V38.3583C74.2353 37.5003 74.2261 36.8867 74.2261 35.9248H77.054C81.2729 35.9248 84.7537 37.7494 87.4571 41.4285C90.1605 45.1076 91.5214 49.8639 91.5214 55.7551C91.5214 61.6464 90.1605 66.4304 87.4571 70.0818C84.7537 73.7609 81.2729 75.5855 77.054 75.5855H74.2353ZM76.1406 74.7851H76.5097C80.3802 74.7851 83.5104 72.9052 85.8816 69.143C88.2529 65.4085 89.4408 60.929 89.4408 55.7575C89.4408 50.5859 88.2552 46.1318 85.8816 42.3719C83.5104 38.6098 80.3779 36.7298 76.5097 36.7298H76.1406V74.7874V74.7851Z" fill="#7B0100"/>
<path d="M110.955 75.5855H98.3768V35.9248H110.962V36.7275H101.087V53.3216H110.962V54.1243H101.087V74.7851H110.955" fill="#7B0100"/>
<path d="M67.7258 35.9248H64.8701V75.5855H67.7258V35.9248Z" fill="#7B0100"/>
<path d="M107.31 117.941C109.822 113.891 111.105 109.275 111.105 104.097C111.105 96.508 107.876 89.5857 102.799 85.6898L100.287 88.3563C102.902 90.1508 105.054 92.5613 106.798 95.5853C108.542 98.6117 109.414 101.79 109.414 105.225C109.414 109.225 108.388 113.019 106.39 116.659L85.0604 88.3563C79.1645 80.6128 76.242 73.333 76.242 66.616C76.242 59.5392 78.9085 56.0031 84.2415 56.0031C85.5794 56.0031 86.8111 56.266 87.9414 56.7758C87.8837 56.1553 88.0567 55.5071 88.4581 55.0389C87.141 54.6929 85.7385 54.5176 84.2415 54.5176C80.6016 54.5176 77.5245 55.6455 75.0126 57.8507C72.5006 60.1066 71.2181 63.2852 71.2181 67.3357C71.2181 72.5141 72.7566 77.7964 75.8314 83.1801C71.225 84.3934 67.4467 86.797 64.5334 90.4807C64.3789 90.6975 64.2382 90.9213 64.1044 91.1496C64.1344 91.1496 64.162 91.1473 64.192 91.1473C65.516 91.1473 66.6786 91.6502 67.5597 92.4621C69.4143 88.6423 72.2907 85.6828 76.242 83.9482C77.7805 86.6655 80.0365 89.8948 82.959 93.6892L103.467 120.557C98.7504 125.634 92.7508 128.146 85.4709 128.146C79.2891 128.146 74.4567 126.273 71.0474 122.539C70.6968 123.364 70.1086 124.089 69.3866 124.638C73.8592 127.941 79.2084 129.583 85.4709 129.583C93.1106 129.634 99.417 127.02 104.39 121.84L106.492 124.661C107.587 126.149 109.922 128.863 111.292 129.938C109.995 127.23 110.512 125.403 110.321 124.963C112.353 125.111 114.692 128.144 115.517 128.764L107.313 117.946L107.31 117.941Z" fill="#7B0100"/>
<path d="M129.25 32.82C129.25 34.155 128.575 34.965 127.45 34.965C126.333 34.965 125.658 34.155 125.658 32.82V31.41H124V30.855H129.25V32.82ZM126.145 32.805C126.145 33.855 126.625 34.41 127.45 34.41C128.29 34.41 128.77 33.855 128.77 32.805V31.41H126.145V32.805ZM124 40.3576V39.7501L125.688 38.5501C125.673 38.4151 125.665 38.2801 125.665 38.1301V36.7201H124V36.1651H129.25V38.1301C129.25 39.4651 128.575 40.2751 127.45 40.2751C126.625 40.2751 126.048 39.8401 125.8 39.0751L124 40.3576ZM126.138 38.1151C126.138 39.1651 126.625 39.7201 127.45 39.7201C128.29 39.7201 128.77 39.1651 128.77 38.1151V36.7201H126.138V38.1151ZM124.48 42.14V45.2975H124V41.585H129.25V45.185H128.77V42.14H126.903V44.855H126.43V42.14H124.48ZM123.955 48.0496C123.955 47.2621 124.233 46.4896 124.638 46.0996L125.065 46.3171C124.698 46.6921 124.428 47.3596 124.428 48.0496C124.428 49.0321 124.84 49.4596 125.358 49.4596C126.798 49.4596 125.913 46.2271 127.855 46.2271C128.628 46.2271 129.295 46.8271 129.295 48.1621C129.295 48.7546 129.123 49.3696 128.83 49.7896L128.388 49.6021C128.68 49.1521 128.823 48.6271 128.823 48.1621C128.823 47.2021 128.395 46.7746 127.87 46.7746C126.43 46.7746 127.3 50.0071 125.388 50.0071C124.615 50.0071 123.955 49.3921 123.955 48.0496ZM124.48 51.7713V54.9288H124V51.2163H129.25V54.8163H128.77V51.7713H126.903V54.4863H126.43V51.7713H124.48ZM129.25 60.0734V60.6209H124V60.1634L128.26 56.7884H124V56.2334H129.25V56.6909L124.99 60.0734H129.25ZM124 63.3545H128.77V61.5095H129.25V65.7545H128.77V63.9095H124V63.3545ZM124.48 67.1961V70.3536H124V66.6411H129.25V70.2411H128.77V67.1961H126.903V69.9111H126.43V67.1961H124.48ZM123.955 73.1057C123.955 72.3182 124.233 71.5457 124.638 71.1557L125.065 71.3732C124.698 71.7482 124.428 72.4157 124.428 73.1057C124.428 74.0882 124.84 74.5157 125.358 74.5157C126.798 74.5157 125.913 71.2832 127.855 71.2832C128.628 71.2832 129.295 71.8832 129.295 73.2182C129.295 73.8107 129.123 74.4257 128.83 74.8457L128.388 74.6582C128.68 74.2082 128.823 73.6832 128.823 73.2182C128.823 72.2582 128.395 71.8307 127.87 71.8307C126.43 71.8307 127.3 75.0632 125.388 75.0632C124.615 75.0632 123.955 74.4482 123.955 73.1057Z" fill="#7B0100"/>
<path d="M115.58 29.188H0V30.1845H115.58V29.188Z" fill="#7B0100"/>
<path d="M56.5433 29.7324C54.4835 28.4453 35.7096 16.4253 36.1732 5.90691C36.3739 1.34204 41.9237 -0.676288 45.0631 2.64761C51.3487 9.30231 56.1235 27.4834 56.6748 29.6378C56.6933 29.7139 56.6125 29.7762 56.5456 29.7347L56.5433 29.7324Z" stroke="#7B0100" stroke-width="0.5" stroke-miterlimit="10"/>
<path d="M56.5844 29.4788C56.5844 29.7787 56.9419 29.9332 57.1588 29.7279L71.8891 16.0333C72.4219 15.5005 72.8509 14.8638 73.0839 14.1465C73.9166 11.5792 72.445 8.60356 68.8558 9.00723C67.7302 9.1341 66.6691 9.59773 65.7695 10.2851C65.6911 10.3451 65.6126 10.4074 65.5342 10.4673C63.532 12.0451 61.8989 14.0427 60.6556 16.2663C56.0885 24.4457 56.5844 29.4788 56.5844 29.4788Z" stroke="#7B0100" stroke-width="0.5" stroke-miterlimit="10"/>
</svg>
