<svg width="45" height="46" viewBox="0 0 45 46" fill="none" xmlns="http://www.w3.org/2000/svg">
<path d="M20.7216 32.0174H19.7249V45.8591H20.7216V32.0174Z" fill="#F6EAD4"/>
<path d="M0.0120755 45.8977V32.9053C0.0120755 32.6058 0 32.3305 0 32.056H4.40353V32.3362H0.95799V41.6222H4.40434V41.9024H0.95799V45.8985H0.0120755V45.8977Z" fill="#F6EAD4"/>
<path d="M10.2054 45.8977C10.1539 45.6216 10.1185 45.3286 10.0509 45.0291L9.73206 43.3112H5.73587L5.28183 45.8977H4.98236L7.24128 33.2434C7.34352 32.8023 7.39505 32.5076 7.49568 32.1099C7.50373 32.0785 7.5319 32.056 7.5641 32.056H8.03263C8.38041 32.056 8.65975 32.3265 8.72738 32.6735L11.0153 45.0291C11.0829 45.3962 11.1497 45.715 11.2053 45.8977H10.2046H10.2054ZM9.6741 43.031L7.71464 32.4328C7.71464 32.4231 7.70498 32.4134 7.69532 32.4134L7.676 32.4328L5.79383 43.031H9.6741Z" fill="#F6EAD4"/>
<path d="M17.2414 39.9324C17.7341 40.5209 17.9748 41.3034 17.9748 42.2783C17.9748 43.4464 17.627 44.344 16.9419 44.9615C16.2472 45.5886 15.3882 45.8977 14.3747 45.8977H12.7042C12.7042 45.6683 12.7042 45.3479 12.7139 45.0484V32.9053C12.7139 32.6203 12.7235 32.3627 12.7284 32.0971C12.7284 32.0745 12.7477 32.056 12.7702 32.056H14.1517C15.1169 32.056 15.9372 32.3458 16.6231 32.9343C17.2986 33.5228 17.6367 34.3729 17.6367 35.4822C17.6367 37.2195 16.7004 38.3683 15.3391 38.7643C16.1208 38.9479 16.7487 39.3432 17.2406 39.9324H17.2414ZM13.6598 38.6581H13.94C14.7796 38.6581 15.4357 38.3683 15.9091 37.7991C16.3728 37.2299 16.6038 36.4475 16.6038 35.4726C16.6038 33.5228 15.6289 32.3353 13.94 32.3353H13.6598V38.6581ZM13.6598 45.6176H14.1525C15.0308 45.6176 15.7159 45.3181 16.2085 44.72C16.7004 44.1218 16.9419 43.3104 16.9419 42.2775C16.9419 41.2447 16.7004 40.434 16.2182 39.8358C15.7263 39.2377 15.0404 38.9382 14.1525 38.9382H13.6598V45.6176Z" fill="#F6EAD4"/>
<path d="M8.24918 15.5641C7.33546 14.0683 6.22532 13.3148 4.93324 13.3148C3.64117 13.3148 2.5914 13.9709 1.84031 15.2839C1.08921 16.6066 0.717285 18.2086 0.717285 20.1101C0.717285 22.0116 1.08921 23.6136 1.84031 24.9363C2.5914 26.259 3.62024 26.9151 4.93324 26.9151C6.24625 26.9151 7.42402 26.2203 8.41179 24.8204L8.56717 25.0329C7.58583 26.4715 6.37425 27.1855 4.93324 27.1855C3.5663 27.1855 2.40222 26.5005 1.44101 25.1198C0.480605 23.74 0 22.0696 0 20.1101C0 18.1507 0.480605 16.481 1.44181 15.1004C2.40302 13.7198 3.5671 13.0347 4.93405 13.0347C5.7262 13.0347 6.40968 13.2086 6.97803 13.5459C7.54638 13.8936 8.08817 14.4048 8.59534 15.0899L8.24998 15.5633L8.24918 15.5641Z" fill="#F6EAD4"/>
<path d="M13.9609 27.031H10.1676V14.0385C10.1676 13.739 10.1732 13.5008 10.178 13.1892H11.1135V26.7508H13.9609" fill="#F6EAD4"/>
<path d="M20.5911 27.031H16.2094V14.0385C16.2094 13.739 16.2118 13.4774 16.2118 13.1892H20.6016V13.4694H17.1553V19.2608H20.6016V19.5409H17.1553V26.7516H20.5944" fill="#F6EAD4"/>
<path d="M25.9084 27.031V14.0385C25.9084 13.739 25.9052 13.5249 25.9052 13.1892H26.8922C28.3646 13.1892 29.5794 13.826 30.5229 15.11C31.4664 16.394 31.9413 18.054 31.9413 20.1101C31.9413 22.1661 31.4664 23.8358 30.5229 25.1101C29.5794 26.3942 28.3646 27.031 26.8922 27.031H25.9084ZM26.5734 26.7516H26.7022C28.053 26.7516 29.1454 26.0955 29.973 24.7825C30.8006 23.4791 31.2152 21.9158 31.2152 20.1109C31.2152 18.306 30.8014 16.7515 29.973 15.4393C29.1454 14.1263 28.0522 13.4702 26.7022 13.4702H26.5734V26.7524V26.7516Z" fill="#F6EAD4"/>
<path d="M38.7237 27.031H34.3339V13.1892H38.7261V13.4694H35.2798V19.2608H38.7261V19.5409H35.2798V26.7516H38.7237" fill="#F6EAD4"/>
<path d="M23.6366 13.1892H22.64V27.031H23.6366V13.1892Z" fill="#F6EAD4"/>
<path d="M37.4518 41.813C38.3284 40.3994 38.776 38.7885 38.776 36.9812C38.776 34.3327 37.649 31.9167 35.8771 30.557L35.0004 31.4877C35.9133 32.114 36.6644 32.9552 37.273 34.0106C37.8816 35.0668 38.186 36.1762 38.186 37.3749C38.186 38.7708 37.8277 40.0951 37.1306 41.3654L29.6864 31.4877C27.6287 28.7852 26.6088 26.2445 26.6088 23.9002C26.6088 21.4304 27.5394 20.1963 29.4006 20.1963C29.8675 20.1963 30.2974 20.288 30.6919 20.466C30.6718 20.2494 30.7321 20.0232 30.8722 19.8598C30.4125 19.739 29.9231 19.6778 29.4006 19.6778C28.1303 19.6778 27.0564 20.0715 26.1797 20.8411C25.303 21.6284 24.8554 22.7378 24.8554 24.1514C24.8554 25.9587 25.3924 27.8022 26.4655 29.6812C24.8578 30.1046 23.5392 30.9435 22.5224 32.2291C22.4685 32.3048 22.4194 32.3829 22.3727 32.4626C22.3831 32.4626 22.3928 32.4618 22.4033 32.4618C22.8654 32.4618 23.2711 32.6373 23.5786 32.9206C24.2259 31.5875 25.2297 30.5546 26.6088 29.9492C27.1457 30.8976 27.933 32.0246 28.953 33.3489L36.1106 42.7259C34.4643 44.4978 32.3704 45.3745 29.8297 45.3745C27.6722 45.3745 25.9857 44.7208 24.7958 43.4175C24.6735 43.7057 24.4682 43.9584 24.2162 44.15C25.7772 45.3028 27.644 45.876 29.8297 45.876C32.496 45.8937 34.6969 44.9816 36.4326 43.1735L37.166 44.1581C37.5484 44.6773 38.3631 45.6249 38.8412 46C38.3888 45.0549 38.5691 44.4173 38.5023 44.2635C39.2116 44.3151 40.0279 45.3737 40.3161 45.5902L37.4526 41.8146L37.4518 41.813Z" fill="#F6EAD4"/>
<path d="M43.96 11.0528C43.96 11.5512 43.708 11.8536 43.288 11.8536C42.8708 11.8536 42.6188 11.5512 42.6188 11.0528V10.5264H42V10.3192H43.96V11.0528ZM42.8008 11.0472C42.8008 11.4392 42.98 11.6464 43.288 11.6464C43.6016 11.6464 43.7808 11.4392 43.7808 11.0472V10.5264H42.8008V11.0472ZM42 13.8668V13.64L42.63 13.192C42.6244 13.1416 42.6216 13.0912 42.6216 13.0352V12.5088H42V12.3016H43.96V13.0352C43.96 13.5336 43.708 13.836 43.288 13.836C42.98 13.836 42.7644 13.6736 42.672 13.388L42 13.8668ZM42.798 13.0296C42.798 13.4216 42.98 13.6288 43.288 13.6288C43.6016 13.6288 43.7808 13.4216 43.7808 13.0296V12.5088H42.798V13.0296ZM42.1792 14.5323V15.7111H42V14.3251H43.96V15.6691H43.7808V14.5323H43.0836V15.5459H42.9072V14.5323H42.1792ZM41.9832 16.7385C41.9832 16.4445 42.0868 16.1561 42.238 16.0105L42.3976 16.0917C42.2604 16.2317 42.1596 16.4809 42.1596 16.7385C42.1596 17.1053 42.3136 17.2649 42.5068 17.2649C43.0444 17.2649 42.714 16.0581 43.4392 16.0581C43.7276 16.0581 43.9768 16.2821 43.9768 16.7805C43.9768 17.0017 43.9124 17.2313 43.8032 17.3881L43.638 17.3181C43.7472 17.1501 43.8004 16.9541 43.8004 16.7805C43.8004 16.4221 43.6408 16.2625 43.4448 16.2625C42.9072 16.2625 43.232 17.4693 42.518 17.4693C42.2296 17.4693 41.9832 17.2397 41.9832 16.7385ZM42.1792 18.128V19.3068H42V17.9208H43.96V19.2648H43.7808V18.128H43.0836V19.1416H42.9072V18.128H42.1792ZM43.96 21.2274V21.4318H42V21.261L43.5904 20.001H42V19.7938H43.96V19.9646L42.3696 21.2274H43.96ZM42 22.4523H43.7808V21.7635H43.96V23.3483H43.7808V22.6595H42V22.4523ZM42.1792 23.8866V25.0654H42V23.6794H43.96V25.0234H43.7808V23.8866H43.0836V24.9002H42.9072V23.8866H42.1792ZM41.9832 26.0928C41.9832 25.7988 42.0868 25.5104 42.238 25.3648L42.3976 25.446C42.2604 25.586 42.1596 25.8352 42.1596 26.0928C42.1596 26.4596 42.3136 26.6192 42.5068 26.6192C43.0444 26.6192 42.714 25.4124 43.4392 25.4124C43.7276 25.4124 43.9768 25.6364 43.9768 26.1348C43.9768 26.356 43.9124 26.5856 43.8032 26.7424L43.638 26.6724C43.7472 26.5044 43.8004 26.3084 43.8004 26.1348C43.8004 25.7764 43.6408 25.6168 43.4448 25.6168C42.9072 25.6168 43.232 26.8236 42.518 26.8236C42.2296 26.8236 41.9832 26.594 41.9832 26.0928Z" fill="#F6EAD4"/>
<path d="M40.3378 10.8377H0V11.1855H40.3378V10.8377Z" fill="#F6EAD4"/>
<path d="M19.7338 11.0277C19.0149 10.5785 12.4627 6.38349 12.6245 2.71253C12.6946 1.11937 14.6315 0.414968 15.7271 1.57502C17.9208 3.89754 19.5873 10.2428 19.7797 10.9947C19.7861 11.0213 19.7579 11.043 19.7346 11.0285L19.7338 11.0277Z" stroke="#F6EAD4" stroke-width="0.5" stroke-miterlimit="10"/>
<path d="M19.7483 10.9392C19.7483 11.0438 19.8731 11.0978 19.9487 11.0261L25.0897 6.24664C25.2756 6.06067 25.4254 5.83848 25.5067 5.58812C25.7973 4.69212 25.2837 3.65362 24.0311 3.7945C23.6382 3.83878 23.2679 4.00059 22.9539 4.24049C22.9266 4.26142 22.8992 4.28316 22.8718 4.30409C22.173 4.85473 21.6031 5.55189 21.1692 6.32794C19.5752 9.18259 19.7483 10.9392 19.7483 10.9392Z" stroke="#F6EAD4" stroke-width="0.5" stroke-miterlimit="10"/>
</svg>
