<svg width="124" height="165" viewBox="0 0 124 165" fill="none" xmlns="http://www.w3.org/2000/svg">
<path d="M5.09289 133.4H12.7129V136H1.87289V122H12.4529V124.6H5.09289V127.64H11.5929V130.16H5.09289V133.4ZM18.6127 136.16C16.7927 136.16 14.9527 135.66 13.9527 135L14.9927 132.76C15.9527 133.38 17.4127 133.8 18.7327 133.8C20.1727 133.8 20.7127 133.42 20.7127 132.82C20.7127 131.06 14.2127 132.86 14.2127 128.56C14.2127 126.52 16.0527 125.08 19.1927 125.08C20.6727 125.08 22.3127 125.42 23.3327 126.02L22.2927 128.24C21.2327 127.64 20.1727 127.44 19.1927 127.44C17.7927 127.44 17.1927 127.88 17.1927 128.44C17.1927 130.28 23.6927 128.5 23.6927 132.74C23.6927 134.74 21.8327 136.16 18.6127 136.16ZM30.8177 136.16C27.3177 136.16 24.8177 133.86 24.8177 130.62C24.8177 127.38 27.3177 125.08 30.8177 125.08C33.0777 125.08 34.8577 126.06 35.6377 127.82L33.2177 129.12C32.6377 128.1 31.7777 127.64 30.7977 127.64C29.2177 127.64 27.9777 128.74 27.9777 130.62C27.9777 132.5 29.2177 133.6 30.7977 133.6C31.7777 133.6 32.6377 133.16 33.2177 132.12L35.6377 133.44C34.8577 135.16 33.0777 136.16 30.8177 136.16ZM42.4174 136.16C38.9974 136.16 36.4974 133.86 36.4974 130.62C36.4974 127.38 38.9974 125.08 42.4174 125.08C45.8374 125.08 48.3174 127.38 48.3174 130.62C48.3174 133.86 45.8374 136.16 42.4174 136.16ZM42.4174 133.6C43.9774 133.6 45.1574 132.48 45.1574 130.62C45.1574 128.76 43.9774 127.64 42.4174 127.64C40.8574 127.64 39.6574 128.76 39.6574 130.62C39.6574 132.48 40.8574 133.6 42.4174 133.6ZM50.4029 136V121.16H53.5229V136H50.4029ZM62.9585 125.08C65.4985 125.08 67.4185 126.56 67.4185 129.84V136H64.2985V130.32C64.2985 128.58 63.4985 127.78 62.1185 127.78C60.6185 127.78 59.5385 128.7 59.5385 130.68V136H56.4185V121.16H59.5385V126.36C60.3785 125.52 61.5785 125.08 62.9585 125.08ZM74.5866 125.08C77.8666 125.08 79.7666 126.6 79.7666 129.86V136H76.8466V134.66C76.2666 135.64 75.1466 136.16 73.5666 136.16C71.0466 136.16 69.5466 134.76 69.5466 132.9C69.5466 131 70.8866 129.68 74.1666 129.68H76.6466C76.6466 128.34 75.8466 127.56 74.1666 127.56C73.0266 127.56 71.8466 127.94 71.0666 128.56L69.9466 126.38C71.1266 125.54 72.8666 125.08 74.5866 125.08ZM74.3466 134.06C75.3866 134.06 76.2866 133.58 76.6466 132.6V131.5H74.5066C73.0466 131.5 72.5866 132.04 72.5866 132.76C72.5866 133.54 73.2466 134.06 74.3466 134.06ZM91.8745 136.16C90.0545 136.16 88.2145 135.66 87.2145 135L88.2545 132.76C89.2145 133.38 90.6745 133.8 91.9945 133.8C93.4345 133.8 93.9745 133.42 93.9745 132.82C93.9745 131.06 87.4745 132.86 87.4745 128.56C87.4745 126.52 89.3145 125.08 92.4545 125.08C93.9345 125.08 95.5745 125.42 96.5945 126.02L95.5545 128.24C94.4945 127.64 93.4345 127.44 92.4545 127.44C91.0545 127.44 90.4545 127.88 90.4545 128.44C90.4545 130.28 96.9545 128.5 96.9545 132.74C96.9545 134.74 95.0945 136.16 91.8745 136.16ZM109.419 130.66C109.419 130.9 109.379 131.24 109.359 131.5H101.219C101.519 132.84 102.659 133.66 104.299 133.66C105.439 133.66 106.259 133.32 106.999 132.62L108.659 134.42C107.659 135.56 106.159 136.16 104.219 136.16C100.499 136.16 98.0795 133.82 98.0795 130.62C98.0795 127.4 100.539 125.08 103.819 125.08C106.979 125.08 109.419 127.2 109.419 130.66ZM103.839 127.44C102.419 127.44 101.399 128.3 101.179 129.68H106.479C106.259 128.32 105.239 127.44 103.839 127.44ZM119.217 125.24H122.337V136H119.377V134.72C118.557 135.66 117.357 136.16 116.037 136.16C113.337 136.16 111.437 134.64 111.437 131.32V125.24H114.557V130.86C114.557 132.66 115.357 133.46 116.737 133.46C118.177 133.46 119.217 132.54 119.217 130.56V125.24ZM22.9427 146C26.6827 146 29.0227 147.94 29.0227 151.08C29.0227 154.2 26.6827 156.14 22.9427 156.14H20.1227V160H16.8827V146H22.9427ZM22.7627 153.5C24.7427 153.5 25.7427 152.6 25.7427 151.08C25.7427 149.54 24.7427 148.64 22.7627 148.64H20.1227V153.5H22.7627ZM34.0958 150.66C34.8558 149.62 36.1358 149.08 37.7958 149.08V151.96C37.5358 151.94 37.3358 151.92 37.0958 151.92C35.3758 151.92 34.2358 152.86 34.2358 154.92V160H31.1158V149.24H34.0958V150.66ZM50.0933 154.66C50.0933 154.9 50.0533 155.24 50.0333 155.5H41.8933C42.1933 156.84 43.3333 157.66 44.9733 157.66C46.1133 157.66 46.9333 157.32 47.6733 156.62L49.3333 158.42C48.3333 159.56 46.8333 160.16 44.8933 160.16C41.1733 160.16 38.7533 157.82 38.7533 154.62C38.7533 151.4 41.2133 149.08 44.4933 149.08C47.6533 149.08 50.0933 151.2 50.0933 154.66ZM44.5133 151.44C43.0933 151.44 42.0733 152.3 41.8533 153.68H47.1533C46.9333 152.32 45.9133 151.44 44.5133 151.44ZM55.7905 160.16C53.9705 160.16 52.1305 159.66 51.1305 159L52.1705 156.76C53.1305 157.38 54.5905 157.8 55.9105 157.8C57.3505 157.8 57.8905 157.42 57.8905 156.82C57.8905 155.06 51.3905 156.86 51.3905 152.56C51.3905 150.52 53.2305 149.08 56.3705 149.08C57.8505 149.08 59.4905 149.42 60.5105 150.02L59.4705 152.24C58.4105 151.64 57.3505 151.44 56.3705 151.44C54.9705 151.44 54.3705 151.88 54.3705 152.44C54.3705 154.28 60.8705 152.5 60.8705 156.74C60.8705 158.74 59.0105 160.16 55.7905 160.16ZM73.3355 154.66C73.3355 154.9 73.2955 155.24 73.2755 155.5H65.1355C65.4355 156.84 66.5755 157.66 68.2155 157.66C69.3555 157.66 70.1755 157.32 70.9155 156.62L72.5755 158.42C71.5755 159.56 70.0755 160.16 68.1355 160.16C64.4155 160.16 61.9955 157.82 61.9955 154.62C61.9955 151.4 64.4555 149.08 67.7355 149.08C70.8955 149.08 73.3355 151.2 73.3355 154.66ZM67.7555 151.44C66.3355 151.44 65.3155 152.3 65.0955 153.68H70.3955C70.1755 152.32 69.1555 151.44 67.7555 151.44ZM81.9527 149.08C84.4927 149.08 86.4127 150.56 86.4127 153.84V160H83.2927V154.32C83.2927 152.58 82.4927 151.78 81.1127 151.78C79.6127 151.78 78.5327 152.7 78.5327 154.68V160H75.4127V149.24H78.3927V150.5C79.2327 149.58 80.4927 149.08 81.9527 149.08ZM95.3408 157.28L96.1808 159.48C95.5408 159.94 94.6008 160.16 93.6408 160.16C91.1008 160.16 89.6208 158.86 89.6208 156.3V151.88H87.9608V149.48H89.6208V146.86H92.7408V149.48H95.4208V151.88H92.7408V156.26C92.7408 157.18 93.2408 157.68 94.0808 157.68C94.5408 157.68 95.0008 157.54 95.3408 157.28ZM108.14 154.66C108.14 154.9 108.1 155.24 108.08 155.5H99.9402C100.24 156.84 101.38 157.66 103.02 157.66C104.16 157.66 104.98 157.32 105.72 156.62L107.38 158.42C106.38 159.56 104.88 160.16 102.94 160.16C99.2202 160.16 96.8002 157.82 96.8002 154.62C96.8002 151.4 99.2602 149.08 102.54 149.08C105.7 149.08 108.14 151.2 108.14 154.66ZM102.56 151.44C101.14 151.44 100.12 152.3 99.9002 153.68H105.2C104.98 152.32 103.96 151.44 102.56 151.44Z" fill="#626262"/>
<path d="M106.333 46.2981L93.5467 38.8781C105.867 28.3781 93.5 8.77811 78.7067 15.4514L74.6467 17.1781L74.1333 12.6981C73.6667 7.65811 71.0533 4.06478 67.6 1.96478C59.9467 -2.48255 48.28 0.564778 46.4133 11.6714L33.58 4.29811C29.1 1.68478 23.4067 3.22478 20.84 7.70478L16.1733 15.7781C14.8667 18.0181 15.66 20.8648 17.9 22.1714L54.2533 43.1714L61.2533 31.0381L69.3267 35.7048L62.3267 47.8381L98.68 68.8381C100.92 70.0048 103.813 69.3514 105.073 67.1114L109.74 59.0381C112.307 54.5581 110.813 48.8648 106.333 46.2981ZM61.3933 18.6714C57.3333 19.8381 54.0667 15.4981 56.12 11.9048C57.3333 9.66478 60.2733 8.91811 62.5133 10.1781C66.1067 12.2781 65.4067 17.6914 61.3933 18.6714ZM85.6133 32.6714C81.6 33.8381 78.3333 29.4981 80.3867 25.9048C81.6467 23.6648 84.54 22.9181 86.7333 24.1781C90.3267 26.2781 89.6267 31.6914 85.6133 32.6714ZM101.06 74.1114C102.973 74.1114 104.793 73.4581 106.333 72.3381V88.6714C106.333 93.8514 102.18 98.0048 97 98.0048H22.3333C17.2 98.0048 13 93.8514 13 88.6714V46.6714H51.0333L55 49.0048V88.6714H64.3333V54.3714L96.3933 72.8514C97.7933 73.6914 99.3333 74.1114 101.06 74.1114Z" fill="#626262"/>
</svg>
