<svg width="34" height="43" viewBox="0 0 34 43" fill="none" xmlns="http://www.w3.org/2000/svg">
<path d="M17 32.7619C14.6412 32.7619 12.75 30.919 12.75 28.6667C12.75 26.3938 14.6412 24.5714 17 24.5714C18.1272 24.5714 19.2082 25.0029 20.0052 25.7709C20.8022 26.5389 21.25 27.5805 21.25 28.6667C21.25 29.7528 20.8022 30.7944 20.0052 31.5624C19.2082 32.3304 18.1272 32.7619 17 32.7619ZM29.75 38.9048V18.4286H4.25V38.9048H29.75ZM29.75 14.3333C30.8772 14.3333 31.9582 14.7648 32.7552 15.5328C33.5522 16.3008 34 17.3424 34 18.4286V38.9048C34 39.9909 33.5522 41.0325 32.7552 41.8005C31.9582 42.5685 30.8772 43 29.75 43H4.25C1.89125 43 0 41.1571 0 38.9048V18.4286C0 16.1557 1.89125 14.3333 4.25 14.3333H6.375V10.2381C6.375 7.52278 7.49442 4.91868 9.48699 2.99867C11.4796 1.07865 14.1821 0 17 0C18.3953 0 19.7769 0.264816 21.066 0.779329C22.3551 1.29384 23.5264 2.04797 24.513 2.99867C25.4996 3.94936 26.2823 5.078 26.8162 6.32015C27.3502 7.56229 27.625 8.89361 27.625 10.2381V14.3333H29.75ZM17 4.09524C15.3092 4.09524 13.6877 4.74243 12.4922 5.89444C11.2966 7.04645 10.625 8.60891 10.625 10.2381V14.3333H23.375V10.2381C23.375 8.60891 22.7034 7.04645 21.5078 5.89444C20.3123 4.74243 18.6908 4.09524 17 4.09524Z" fill="#F6EAD4"/>
</svg>
