<svg width="53" height="38" viewBox="0 0 53 38" fill="none" xmlns="http://www.w3.org/2000/svg">
<path d="M0 8.3125H23.2247L25.0112 11.875H1.78652L0 8.3125ZM2.38202 15.4375H25.6067L27.3933 19H4.16854L2.38202 15.4375ZM41.0899 34.4375C43.067 34.4375 44.6629 32.8462 44.6629 30.875C44.6629 28.9037 43.067 27.3125 41.0899 27.3125C39.1128 27.3125 37.5169 28.9037 37.5169 30.875C37.5169 32.8462 39.1128 34.4375 41.0899 34.4375ZM44.6629 13.0625H38.7079V19H49.3317L44.6629 13.0625ZM17.2697 34.4375C19.2467 34.4375 20.8427 32.8462 20.8427 30.875C20.8427 28.9037 19.2467 27.3125 17.2697 27.3125C15.2926 27.3125 13.6966 28.9037 13.6966 30.875C13.6966 32.8462 15.2926 34.4375 17.2697 34.4375ZM45.8539 9.5L53 19V30.875H48.236C48.236 34.8175 45.044 38 41.0899 38C37.1357 38 33.9438 34.8175 33.9438 30.875H24.4157C24.4157 34.8175 21.2 38 17.2697 38C13.3155 38 10.1236 34.8175 10.1236 30.875H5.35955V22.5625H10.1236V26.125H11.9339C13.244 24.6763 15.1497 23.75 17.2697 23.75C19.3897 23.75 21.2953 24.6763 22.6054 26.125H33.9438V4.75H5.35955C5.35955 2.11375 7.47955 0 10.1236 0H38.7079V9.5H45.8539Z" fill="#F6EAD4"/>
</svg>
