<svg width="1920" height="200" viewBox="0 0 1920 200" fill="none" xmlns="http://www.w3.org/2000/svg">
<path d="M0 106.883L40 117.572C80 128.26 160 149.637 240 163.865C320 178.362 400 185.042 480 192.39C560 199.738 640 206.418 720 188.849C800 171.013 880 128.26 960 114.031C1040 99.5351 1120 114.232 1200 114.031C1280 114.232 1360 99.5351 1440 103.343C1520 106.883 1600 128.26 1680 128.26C1760 128.26 1840 106.883 1880 96.195L1920 85.5066V0H1880C1840 0 1760 0 1680 0C1600 0 1520 0 1440 0C1360 0 1280 0 1200 0C1120 0 1040 0 960 0C880 0 800 0 720 0C640 0 560 0 480 0C400 0 320 0 240 0C160 0 80 0 40 0H0V106.883Z" fill="#FDFDFD"/>
</svg>
