<svg width="93" height="93" viewBox="0 0 93 93" fill="none" xmlns="http://www.w3.org/2000/svg">
<circle cx="46.5" cy="46.5" r="46.5" fill="#00B507"/>
<path d="M47.6789 17.0381C32.0963 17.0381 19.3962 29.6747 19.3962 45.1795C19.3962 50.1489 20.709 54.9764 23.1634 59.2359L19.1678 73.832L34.1512 69.9132C38.2894 72.1566 42.9414 73.3492 47.6789 73.3492C63.2616 73.3492 75.9617 60.7126 75.9617 45.2079C75.9617 37.6827 73.0221 30.6118 67.6852 25.3016C62.3483 19.963 55.242 17.0381 47.6789 17.0381ZM47.7075 21.7804C53.9862 21.7804 59.8654 24.2225 64.3176 28.6524C68.7412 33.0824 71.1956 38.9605 71.1956 45.2079C71.1956 58.1001 60.6359 68.5785 47.6789 68.5785C43.4551 68.5785 39.3168 67.4711 35.7208 65.3129L34.8646 64.8301L25.9603 67.1587L28.3291 58.526L27.7583 57.6173C25.418 53.9541 24.1623 49.6094 24.1623 45.1795C24.1908 32.2872 34.722 21.7804 47.7075 21.7804ZM37.6615 32.1737C37.2049 32.1737 36.4343 32.344 35.7779 33.054C35.15 33.7639 33.295 35.4961 33.295 38.9321C33.295 42.3966 35.835 45.719 36.1489 46.2017C36.5485 46.6845 41.1719 53.7837 48.2783 56.7938C49.9621 57.5605 51.2749 57.9865 52.3024 58.2988C53.9862 58.8384 55.5273 58.7532 56.7546 58.5828C58.1245 58.384 60.9213 56.879 61.5207 55.232C62.12 53.585 62.12 52.1935 61.9488 51.8811C61.749 51.5972 61.2924 51.4268 60.5789 51.1144C59.8654 50.7169 56.3835 49.013 55.7557 48.7859C55.0993 48.5587 54.6997 48.4451 54.1574 49.1266C53.7008 49.8366 52.3309 51.4268 51.9314 51.8811C51.5033 52.3639 51.1037 52.4207 50.4188 52.0799C49.6767 51.7108 47.3936 50.9724 44.7108 48.5871C42.5989 46.7129 41.2004 44.4127 40.7724 43.7028C40.4299 43.0213 40.7438 42.5953 41.0863 42.283C41.4002 41.9706 41.8569 41.4595 42.1423 41.0335C42.5133 40.6359 42.6274 40.3236 42.8557 39.8692C43.0841 39.3865 42.9699 38.9889 42.7987 38.6482C42.6274 38.3358 41.2005 34.8146 40.6011 33.4231C40.0303 32.0601 39.4595 32.2305 39.0029 32.2021C38.6033 32.2021 38.1467 32.1737 37.6615 32.1737Z" fill="white"/>
</svg>
