<svg width="34" height="36" viewBox="0 0 34 36" fill="none" xmlns="http://www.w3.org/2000/svg">
<path d="M17.0683 0C7.7397 0 0.136684 8.01 0.136684 17.838C0.136684 20.988 0.922613 24.048 2.39196 26.748L0 36L8.96985 33.516C11.4472 34.938 14.2322 35.694 17.0683 35.694C26.397 35.694 34 27.684 34 17.856C34 13.086 32.2402 8.604 29.0452 5.238C25.8503 1.854 21.596 0 17.0683 0ZM17.0854 3.006C20.8442 3.006 24.3638 4.554 27.0291 7.362C29.6774 10.17 31.1467 13.896 31.1467 17.856C31.1467 26.028 24.8251 32.67 17.0683 32.67C14.5397 32.67 12.0623 31.968 9.90955 30.6L9.39698 30.294L4.06633 31.77L5.48442 26.298L5.14271 25.722C3.74171 23.4 2.98995 20.646 2.98995 17.838C3.00704 9.666 9.31156 3.006 17.0854 3.006ZM11.0714 9.594C10.798 9.594 10.3367 9.702 9.94372 10.152C9.56784 10.602 8.45729 11.7 8.45729 13.878C8.45729 16.074 9.97789 18.18 10.1658 18.486C10.405 18.792 13.1729 23.292 17.4271 25.2C18.4352 25.686 19.2211 25.956 19.8362 26.154C20.8442 26.496 21.7668 26.442 22.5015 26.334C23.3216 26.208 24.996 25.254 25.3548 24.21C25.7136 23.166 25.7136 22.284 25.6111 22.086C25.4915 21.906 25.2181 21.798 24.791 21.6C24.3638 21.348 22.2794 20.268 21.9035 20.124C21.5106 19.98 21.2714 19.908 20.9467 20.34C20.6734 20.79 19.8533 21.798 19.6141 22.086C19.3578 22.392 19.1186 22.428 18.7085 22.212C18.2643 21.978 16.8975 21.51 15.2915 19.998C14.0271 18.81 13.1899 17.352 12.9337 16.902C12.7286 16.47 12.9166 16.2 13.1216 16.002C13.3095 15.804 13.5829 15.48 13.7538 15.21C13.9759 14.958 14.0442 14.76 14.1809 14.472C14.3176 14.166 14.2492 13.914 14.1467 13.698C14.0442 13.5 13.1899 11.268 12.8312 10.386C12.4894 9.522 12.1477 9.63 11.8744 9.612C11.6352 9.612 11.3618 9.594 11.0714 9.594Z" fill="#7B0100"/>
</svg>
